<svg style="position: absolute; width: 0; height: 0; overflow: hidden;" version="1.1"
     xmlns="http://www.w3.org/2000/svg" xmlns:xlink="http://www.w3.org/1999/xlink">
  <defs>
    <symbol id="icon-android">
      <path id="56loa" d="M890.17 655.5v6.16c0 .85-.69 1.55-1.54 1.55-.84 0-1.54-.7-1.54-1.55v-6.16c0-.85.7-1.54
      1.54-1.54.85 0 1.54.7 1.54 1.54zm-18.49 0v6.16c0 .85-.69 1.55-1.54 1.55-.85 0-1.54-.7-1.54-1.55v-6.16c0-.85.7-1.54
      1.54-1.54.85 0 1.54.7 1.54 1.54zm.77 0h13.87v8.48a2.31 2.31 0 0 1-2.3 2.3h-.78v3.09c0 .85-.7 1.54-1.54 1.54-.85
      0-1.54-.7-1.54-1.54v-3.08h-1.54v3.08c0 .85-.7 1.54-1.54 1.54-.85 0-1.54-.7-1.54-1.54v-3.08h-.78a2.31 2.31
      0 0 1-2.3-2.31zm13.83-1.54H872.5a6.94 6.94 0 0 1 4.03-5.55l-.97-1.87a.2.2 0 1 1 .34-.18l.99 1.9a6.92 6.92
      0 0 1 5 0l.99-1.9a.2.2 0 0 1 .34.18l-.98 1.87a6.94 6.94 0 0 1 4.04 5.55zm-8.86-2.31a1.12 1.12 0 1 0-2.23 0
      1.12 1.12 0 0 0 2.23 0zm6.17 0a1.12 1.12 0 1 0-2.24 0 1.12 1.12 0 0 0 2.24 0z"/>
      <g transform="translate(-868 -646)"><use fill="#fff" xlink:href="#56loa"/></g>
    </symbol>
    <symbol id="icon-apple">
      <path id="y48qa" d="M820.08 662.8c-.03.09-.52 1.77-1.7 3.5-1.04 1.51-2.1 3-3.78 3.04-1.65.03-2.18-.98-4.07-.98-1.89
      0-2.48.95-4.04 1-1.62.07-2.86-1.61-3.9-3.11-2.11-3.06-3.73-8.65-1.56-12.42a6.03 6.03 0 0 1 5.1-3.1c1.6-.03
      3.1 1.08 4.07 1.08.98 0 2.8-1.33 4.72-1.13.8.03 3.06.32 4.51 2.44-.11.07-2.69 1.57-2.66 4.7.03 3.72 3.27
      4.96 3.31 4.98zm-10.07-12.4a5.17 5.17 0 0 1 1.3-3.82 5.52 5.52 0 0 1 3.64-1.87 5.43 5.43 0 0 1-1.28 3.94
      4.58 4.58 0 0 1-3.66 1.75z"/>
      <g transform="translate(-800 -644)"><use fill="#4bcaff" xlink:href="#y48qa"/></g>
    </symbol>
    <symbol id="icon-left-arrow">
      <path id="1o6ma" d="M102 406h-1.4l-5.6-6 5.6-6h1.4l-5.6 6z"/>
      <g transform="translate(-95 -394)"><use fill="#fff" xlink:href="#1o6ma"/></g>
    </symbol>
    <symbol id="icon-right-arrow">
      <path id="qfqsa" d="M1379 406h1.4l5.6-6-5.6-6h-1.4l5.6 6z"/>
      <g transform="translate(-1379 -394)"><use fill="#414042" xlink:href="#qfqsa"/></g>
    </symbol>
  </defs>
</svg>
